# xmcd CD database file
# Copyright (C) 1993-1998 Ti Kan
#
# Track frame offsets:
#	183
#	11053
#	24418
#	33728
#	47680
#	59475
#	71325
#	82333
#	97418
#	112018
#	124808
#	135310
#	148438
#	163225
#	176263
#	187028
#	200228
#	213123
#	227415
#	238760
#
# Disc length: 3337 seconds
#
# Revision: 1
# Processed by: cddbd v1.4b41PL1 Copyright (c) Steve Scherf et al.
# Submitted via: CDValet v3.31 - Copyright (c) 1997 Greg Leichner
#
DISCID=310d0714
DTITLE=Frankie Laine - Rawhide
DYEAR=1900
DGENRE=
TTITLE0=A Woman In Love
TTITLE1=Wheel Of Fortune
TTITLE2=Rawhide
TTITLE3=Still Runs Cool Water
TTITLE4=Strange Lady In Town
TTITLE5=Mule Train
TTITLE6=Hummingbird
TTITLE7=Jezebel
TTITLE8=There Must Be A Reason
TTITLE9=High Noon
TTITLE10=I Believe
TTITLE11=Moonlight Gambler
TTITLE12=Jealousy
TTITLE13=Rain, Rain, Rain
TTITLE14=16 Tons
TTITLE15=The Cry Of The Wild Goose
TTITLE16=Granada
TTITLE17=Don' t Fence Me In
TTITLE18=Rose, Rose I Love You
TTITLE19=Answer Me
EXTD=
EXTT0=
EXTT1=
EXTT2=
EXTT3=
EXTT4=
EXTT5=
EXTT6=
EXTT7=
EXTT8=
EXTT9=
EXTT10=
EXTT11=
EXTT12=
EXTT13=
EXTT14=
EXTT15=
EXTT16=
EXTT17=
EXTT18=
EXTT19=
PLAYORDER=
